<svg width="500" height="500" viewBox="0 0 500 500" fill="none" xmlns="http://www.w3.org/2000/svg">
<rect width="500" height="500" rx="50" fill="url(#paint0_linear_1_6)"/>
<path d="M129.914 198.652C140.07 198.652 150.031 199.824 159.797 202.168C169.758 204.512 179.23 208.027 188.215 212.715C197.199 217.207 205.109 223.262 211.945 230.879C218.977 238.496 222.785 247.578 223.371 258.125V270.43V363.887C222.199 375.605 215.754 381.953 204.035 382.93C198.566 382.93 193.781 381.172 189.68 377.656C185.773 373.945 183.82 369.355 183.82 363.887V267.207C183.43 261.152 181.086 256.172 176.789 252.266C172.688 248.164 168 244.941 162.727 242.598C157.648 240.254 152.277 238.496 146.613 237.324C141.145 236.152 135.578 235.566 129.914 235.566C124.25 235.566 118.586 236.152 112.922 237.324C107.453 238.496 102.082 240.254 96.8086 242.598C91.7305 244.941 87.043 248.164 82.7461 252.266C78.6445 256.172 76.3984 261.152 76.0078 267.207V363.887C75.0312 375.605 68.6836 381.953 56.9648 382.93C51.4961 382.93 46.7109 381.172 42.6094 377.656C38.7031 373.945 36.75 369.355 36.75 363.887V270.43V258.125C37.3359 247.578 41.0469 238.496 47.8828 230.879C54.7188 223.262 62.6289 217.207 71.6133 212.715C80.5977 208.027 89.9727 204.512 99.7383 202.168C109.699 199.824 119.758 198.652 129.914 198.652ZM424.055 363.887V293.281C424.055 288.398 421.516 285.859 416.438 285.664H313.898C310.188 285.859 306.965 287.52 304.23 290.645C301.496 293.574 299.445 297.09 298.078 301.191C296.906 305.098 296.32 309.102 296.32 313.203C296.32 317.109 296.906 321.113 298.078 325.215C299.445 329.121 301.496 332.637 304.23 335.762C306.965 338.691 310.188 340.156 313.898 340.156H388.898C394.367 340.156 398.957 342.109 402.668 346.016C406.574 349.727 408.527 354.316 408.527 359.785C408.527 365.254 406.574 369.844 402.668 373.555C398.957 377.461 394.367 379.414 388.898 379.414H315.07C301.398 379.219 290.07 375.41 281.086 367.988C272.297 360.371 265.949 351.875 262.043 342.5C258.332 332.93 256.477 323.066 256.477 312.91C256.477 303.145 258.43 293.574 262.336 284.199C266.242 274.629 272.59 266.133 281.379 258.711C290.168 251.094 303.156 246.992 320.344 246.406H443.391C448.859 246.406 453.547 248.262 457.453 251.973C461.359 255.488 463.41 259.98 463.605 265.449V363.887C463.605 369.355 461.555 373.945 457.453 377.656C453.547 381.172 448.859 382.93 443.391 382.93C431.672 381.953 425.227 375.605 424.055 363.887Z" fill="white"/>
<defs>
<linearGradient id="paint0_linear_1_6" x1="37" y1="14.5" x2="449.5" y2="484" gradientUnits="userSpaceOnUse">
<stop stop-color="#EB8C56"/>
<stop offset="0.509615" stop-color="#E5628A"/>
<stop offset="1" stop-color="#9D55F1"/>
</linearGradient>
</defs>
</svg>
